<svg width="1440" height="133" viewBox="0 0 1440 133" fill="none" xmlns="http://www.w3.org/2000/svg">
<path d="M8.67767 80.5911H8.77628" stroke="#A5DEDB" stroke-width="4" stroke-miterlimit="10" stroke-linecap="round"/>
<path d="M20.5109 81.7777C31.7524 81.5799 51.2771 78.7123 80.9587 66.1539C132.236 44.3993 158.565 25.9078 262.401 65.4617C366.237 105.016 428.066 66.7472 461.593 54.881C495.12 43.0149 516.124 26.5011 608.817 58.8364C701.511 91.1718 735.728 90.4796 819.843 56.1665C903.957 21.8535 959.868 39.6528 1038.07 73.2736C1116.26 106.894 1169.51 93.0506 1236.57 52.8045C1301.95 13.6461 1355.98 27.5889 1421.95 63.7807" stroke="#A5DEDB" stroke-width="4" stroke-miterlimit="10" stroke-linecap="round" stroke-dasharray="0.3 11.98"/>
<path d="M8.67767 13.3495C8.67767 13.3495 15.8762 6.13087 29.0899 6.13087C42.3036 6.13087 69.2241 28.5777 111.922 76.0424C154.62 123.507 223.056 146.547 292.082 76.0424C361.109 5.53756 370.28 6.13087 390.692 6.13087C411.105 6.13087 438.025 33.1264 486.048 77.3279C534.071 121.529 565.626 142.592 632.681 85.9309C699.736 29.2699 716.795 11.4706 751.013 8.80076C785.23 6.13087 818.068 43.7071 860.766 86.6231C903.464 129.44 983.042 145.262 1077.71 56.2654C1172.37 -32.7308 1241.4 65.4617 1264.38 87.2164C1287.35 108.971 1353.81 151.195 1430.04 80.5911" stroke="#DF3940" stroke-width="4" stroke-miterlimit="10" stroke-linecap="round" stroke-dasharray="0.3 12"/>
<path d="M9.36792 74.658C9.36792 74.658 28.3996 100.368 79.6768 85.832C130.954 71.2959 169.708 35.6974 221.675 33.1264C273.642 30.4565 309.734 93.1494 384.085 88.5018C458.339 83.8543 513.56 33.1264 571.444 33.1264C629.328 33.1264 700.327 94.4349 754.168 93.1494C808.108 91.8639 844.889 27.8855 942.217 31.8409C1039.55 35.7963 1101.97 97.797 1188.05 87.9085C1274.14 78.0201 1311.02 -4.35093 1428.66 72.087" stroke="#00928A" stroke-width="4" stroke-miterlimit="10" stroke-linecap="round" stroke-dasharray="0.4 12"/>
</svg>
